<svg id="Ebene_1" data-name="Ebene 1" xmlns="http://www.w3.org/2000/svg" xmlns:xlink="http://www.w3.org/1999/xlink" viewBox="0 0 123 123"><defs><style>.cls-1{fill:url(#Unbenannter_Verlauf_2);}.cls-2{fill:#fff;stroke:#1d1d1b;stroke-miterlimit:10;}.cls-3{font-size:22.86231px;fill:#1d1d1b;font-family:MyriadPro-Regular, Myriad Pro;}.cls-4{letter-spacing:-0.01099em;}.cls-5{letter-spacing:-0.00897em;}.cls-6{letter-spacing:-0.01001em;}</style><radialGradient id="Unbenannter_Verlauf_2" cx="61.5" cy="61.5" fx="101.419121322281" fy="108.28369109911074" r="61.5" gradientUnits="userSpaceOnUse"><stop offset="1" stop-color="#56c2e2"/><stop offset="1" stop-color="#2581c4" stop-opacity="0"/></radialGradient></defs><circle class="cls-1" cx="61.5" cy="61.5" r="61.5"/><path class="cls-2" d="M281.41,342.26a20.21359,20.21359,0,0,0-7.8,1.55,14.14172,14.14172,0,0,0-17.39-6.67,22.24452,22.24452,0,0,0-21.65-17.13,21.98145,21.98145,0,0,0-22.07,22.25v.01a20.29072,20.29072,0,0,0,.24,40.58,21.78661,21.78661,0,0,0,2.76-.18v-.17h65.91a6.05393,6.05393,0,0,0,2.95.14,20.29758,20.29758,0,0,0-2.95-40.38ZM249.65,358.78c-.07-.09-.14-.19-.2-.28h.49C249.85,358.59,249.75,358.68,249.65,358.78Z" transform="translate(-184 -299.85106)"/><text class="cls-3" transform="translate(33.16999 69.70558) scale(0.82821 1)"><tspan class="cls-4">C</tspan><tspan x="13.00869" y="0">o</tspan><tspan class="cls-5" x="25.55988" y="0">Z</tspan><tspan class="cls-6" x="37.99728" y="0">w</tspan><tspan x="54.59522" y="0">ei</tspan></text></svg>
